<svg id="Component_3_State_2_" data-name="Component 3 (State 2)" xmlns="http://www.w3.org/2000/svg" width="593.136" height="333.969" viewBox="0 0 593.136 333.969">
  <g id="mosaic2">
    <path id="Polygon_1" data-name="Polygon 1" d="M95.5,0,191,138H0Z" transform="translate(288.136 249.969) rotate(180)" fill="#e5ce9e"/>
    <path id="Path_9" data-name="Path 9" d="M40,0,80,90H0Z" transform="translate(269.788 114.955) rotate(8)" fill="#ff7575"/>
    <path id="Path_15" data-name="Path 15" d="M80.025,0,160.05,181.424H0Z" transform="matrix(0.978, -0.208, 0.208, 0.978, 0, 145.245)" fill="#275f84"/>
    <path id="Path_17" data-name="Path 17" d="M34.5,0,69,118H0Z" transform="matrix(0.454, -0.891, 0.891, 0.454, 265.672, 253.923)" fill="#275f84"/>
    <path id="Path_11" data-name="Path 11" d="M44.232,0,88.465,51.491-4.285,49.134Z" transform="translate(206.472 226.607) rotate(-11)" fill="#e5ce9e"/>
    <path id="Path_10" data-name="Path 10" d="M77.309,0l77.309,49.9H0Z" transform="matrix(0.985, 0.174, -0.174, 0.985, 346.594, 117.354)" fill="#275f84"/>
    <path id="Polygon_8" data-name="Polygon 8" d="M35.625,0,71.251,132.027H0Z" transform="matrix(0.407, -0.914, 0.914, 0.407, 328.282, 215.36)" fill="#e5ce9e"/>
    <path id="Polygon_11" data-name="Polygon 11" d="M24.5,0,49,52H0Z" transform="translate(389.136 255.969)" fill="#ff7575"/>
    <path id="Path_12" data-name="Path 12" d="M65.5,0,131,172H0Z" transform="translate(356.547 122.299) rotate(-69)" fill="#ff7575"/>
    <path id="Path_16" data-name="Path 16" d="M83.5,0,167,130H0Z" transform="translate(426.136 203.969)" fill="#275f84"/>
  </g>
</svg>
